<?xml version="1.0" encoding="UTF-8" standalone="no"?>
<svg
   xmlns:dc="http://purl.org/dc/elements/1.1/"
   xmlns:cc="http://creativecommons.org/ns#"
   xmlns:rdf="http://www.w3.org/1999/02/22-rdf-syntax-ns#"
   xmlns:svg="http://www.w3.org/2000/svg"
   xmlns="http://www.w3.org/2000/svg"
   xmlns:sodipodi="http://sodipodi.sourceforge.net/DTD/sodipodi-0.dtd"
   xmlns:inkscape="http://www.inkscape.org/namespaces/inkscape"
   width="210mm"
   height="297mm"
   viewBox="0 0 210 297"
   version="1.1"
   id="svg4431"
   inkscape:version="1.0.2-2 (e86c870879, 2021-01-15)"
   sodipodi:docname="Icon- ChartBar.svg">
  <defs
     id="defs4425" />
  <sodipodi:namedview
     id="base"
     pagecolor="#ffffff"
     bordercolor="#666666"
     borderopacity="1.0"
     inkscape:pageopacity="0.0"
     inkscape:pageshadow="2"
     inkscape:zoom="0.35"
     inkscape:cx="-21.603935"
     inkscape:cy="534.4535"
     inkscape:document-units="mm"
     inkscape:current-layer="layer1"
     inkscape:document-rotation="0"
     showgrid="false"
     inkscape:window-width="1267"
     inkscape:window-height="728"
     inkscape:window-x="78"
     inkscape:window-y="0"
     inkscape:window-maximized="0" />
  <metadata
     id="metadata4428">
    <rdf:RDF>
      <cc:Work
         rdf:about="">
        <dc:format>image/svg+xml</dc:format>
        <dc:type
           rdf:resource="http://purl.org/dc/dcmitype/StillImage" />
        <dc:title></dc:title>
      </cc:Work>
    </rdf:RDF>
  </metadata>
  <g
     inkscape:label="Layer 1"
     inkscape:groupmode="layer"
     id="layer1">
    <g
       id="g5090"
       transform="translate(60.098214,1.5119048)">
      <path
         d="m 40.730712,178.70715 h 10.16 c 1.693334,0 3.386667,-1.69334 3.386667,-3.38667 v -35.56 c 0,-1.69333 -1.693333,-3.38667 -3.386667,-3.38667 h -10.16 c -1.693333,0 -3.386666,1.69334 -3.386666,3.38667 v 35.56 c 0,1.69333 1.693333,3.38667 3.386666,3.38667 z m 25.399997,0 h 10.16 c 1.69334,0 3.38667,-1.69334 3.38667,-3.38667 v -60.96 c 0,-1.69333 -1.69333,-3.38667 -3.38667,-3.38667 h -10.16 c -1.69333,0 -3.38666,1.69334 -3.38666,3.38667 v 60.96 c 0,1.69333 1.69333,3.38667 3.38666,3.38667 z m -76.199997,0 H 0.09071229 c 1.69333401,0 3.38666701,-1.69334 3.38666701,-3.38667 v -18.62667 c 0,-1.69333 -1.693333,-3.38666 -3.38666701,-3.38666 H -10.069288 c -1.693333,0 -3.386666,1.69333 -3.386666,3.38666 v 18.62667 c 0,1.69333 1.693333,3.38667 3.386666,3.38667 z m 25.4,0 h 10.16 c 1.693334,0 3.386667,-1.69334 3.386667,-3.38667 v -52.49333 c 0,-1.69334 -1.693333,-3.38667 -3.386667,-3.38667 h -10.16 c -1.693333,0 -3.386666,1.69333 -3.386666,3.38667 v 52.49333 c 0,1.69333 1.693333,3.38667 3.386666,3.38667 z m 68.579997,16.93333 H -30.389288 v -80.43333 c 0,-2.33892 -1.894416,-4.23334 -4.233333,-4.23334 h -8.466666 c -2.338917,0 -4.233334,1.89442 -4.233334,4.23334 v 88.9 c 0,4.67518 3.791479,8.46666 8.466667,8.46666 H 83.910709 c 2.33892,0 4.23334,-1.89441 4.23334,-4.23333 v -8.46667 c 0,-2.33891 -1.89442,-4.23333 -4.23334,-4.23333 z"
         id="path4433"
         style="fill:#2499c7;fill-opacity:1;stroke:#ffb380;stroke-width:0.683;stroke-miterlimit:4;stroke-dasharray:none;stroke-opacity:1" />
      <path
         id="path4433-9"
         style="fill:#ffb380;fill-opacity:1;stroke:#2499c7;stroke-width:0.683001;stroke-miterlimit:4;stroke-dasharray:none;stroke-opacity:1"
         d="m -37.418978,112.91462 c -0.04392,0.0458 -0.08791,0.0916 -0.131775,0.13746 0.04593,0.10092 0.08835,0.20596 0.131775,0.31006 z m 78.528025,23.45955 c -1.69333,0 -3.38688,1.69302 -3.38688,3.38636 v 35.5601 c 0,1.69333 1.69355,3.38688 3.38688,3.38688 h 10.15958 c 1.69333,0 3.38688,-1.69355 3.38688,-3.38688 v -35.5601 c 0,-1.69334 -1.69355,-3.38636 -3.38688,-3.38636 z m -50.8000044,16.93334 c -1.6933296,0 -3.3868726,1.69302 -3.3868726,3.38635 v 18.62677 c 0,1.69333 1.693543,3.38688 3.3868726,3.38688 H 0.46862962 c 1.69333398,0 3.38687298,-1.69355 3.38687298,-3.38688 v -18.62677 c 0,-1.69333 -1.693539,-3.38635 -3.38687298,-3.38635 z" />
    </g>
  </g>
</svg>
