<?xml version="1.0" encoding="UTF-8" standalone="no"?>
<svg
   xmlns:dc="http://purl.org/dc/elements/1.1/"
   xmlns:cc="http://creativecommons.org/ns#"
   xmlns:rdf="http://www.w3.org/1999/02/22-rdf-syntax-ns#"
   xmlns:svg="http://www.w3.org/2000/svg"
   xmlns="http://www.w3.org/2000/svg"
   xmlns:sodipodi="http://sodipodi.sourceforge.net/DTD/sodipodi-0.dtd"
   xmlns:inkscape="http://www.inkscape.org/namespaces/inkscape"
   width="210mm"
   height="297mm"
   viewBox="0 0 210 297"
   version="1.1"
   id="svg8"
   inkscape:version="1.0.2-2 (e86c870879, 2021-01-15)"
   sodipodi:docname="Icon-Cloud.svg">
  <defs
     id="defs2" />
  <sodipodi:namedview
     id="base"
     pagecolor="#ffffff"
     bordercolor="#666666"
     borderopacity="1.0"
     inkscape:pageopacity="0.0"
     inkscape:pageshadow="2"
     inkscape:zoom="0.35"
     inkscape:cx="400"
     inkscape:cy="560"
     inkscape:document-units="mm"
     inkscape:current-layer="layer1"
     inkscape:document-rotation="0"
     showgrid="false"
     inkscape:window-width="1267"
     inkscape:window-height="728"
     inkscape:window-x="26"
     inkscape:window-y="0"
     inkscape:window-maximized="0" />
  <metadata
     id="metadata5">
    <rdf:RDF>
      <cc:Work
         rdf:about="">
        <dc:format>image/svg+xml</dc:format>
        <dc:type
           rdf:resource="http://purl.org/dc/dcmitype/StillImage" />
        <dc:title></dc:title>
      </cc:Work>
    </rdf:RDF>
  </metadata>
  <g
     inkscape:label="Layer 1"
     inkscape:groupmode="layer"
     id="layer1">
    <path
       d="m 97.638811,165.33434 c 1.08479,-2.83104 1.69333,-5.92666 1.69333,-9.15458 0,-14.02292 -11.37708,-25.4 -25.4,-25.4 -5.21229,0 -10.08062,1.5875 -14.10229,4.28625 -7.328957,-12.7 -21.007915,-21.21958 -36.697707,-21.21958 -23.38916581,0 -42.333333,18.94416 -42.333333,42.33333 0,0.71438 0.02646,1.42875 0.05292,2.14313 -14.81667,5.21229 -25.45292,19.34104 -25.45292,35.95687 0,21.03437 17.065625,38.1 38.1000002,38.1 H 90.865481 c 18.706039,0 33.866659,-15.16063 33.866659,-33.86667 0,-16.3777 -11.64166,-30.05666 -27.093329,-33.17875 z m -38.15292,16.24542 H 42.182144 v 29.63333 c 0,2.32834 -1.905,4.23334 -4.233333,4.23334 h -12.7 c -2.328333,0 -4.233333,-1.905 -4.233333,-4.23334 V 181.57976 H 3.7117282 c -3.78354201,0 -5.662084,-4.55083 -2.98979201,-7.22312 L 28.609019,146.46955 c 1.640417,-1.64041 4.339167,-1.64041 5.979584,0 l 27.887078,27.88709 c 2.6723,2.67229 0.7673,7.22312 -2.98979,7.22312 z"
       id="path10"
       style="stroke-width:0.85;fill:#2499c7;fill-opacity:1;stroke:#ffb380;stroke-opacity:1;stroke-miterlimit:4;stroke-dasharray:none" />
  </g>
</svg>
