<?xml version="1.0" encoding="UTF-8" standalone="no"?>
<svg
   xmlns:dc="http://purl.org/dc/elements/1.1/"
   xmlns:cc="http://creativecommons.org/ns#"
   xmlns:rdf="http://www.w3.org/1999/02/22-rdf-syntax-ns#"
   xmlns:svg="http://www.w3.org/2000/svg"
   xmlns="http://www.w3.org/2000/svg"
   xmlns:sodipodi="http://sodipodi.sourceforge.net/DTD/sodipodi-0.dtd"
   xmlns:inkscape="http://www.inkscape.org/namespaces/inkscape"
   width="210mm"
   height="297mm"
   viewBox="0 0 210 297"
   version="1.1"
   id="svg8"
   inkscape:version="1.0.2-2 (e86c870879, 2021-01-15)"
   sodipodi:docname="Icon-Bugs.svg">
  <defs
     id="defs2" />
  <sodipodi:namedview
     id="base"
     pagecolor="#ffffff"
     bordercolor="#666666"
     borderopacity="1.0"
     inkscape:pageopacity="0.0"
     inkscape:pageshadow="2"
     inkscape:zoom="0.35"
     inkscape:cx="400"
     inkscape:cy="636.336"
     inkscape:document-units="mm"
     inkscape:current-layer="layer1"
     inkscape:document-rotation="0"
     showgrid="false"
     inkscape:window-width="1267"
     inkscape:window-height="728"
     inkscape:window-x="83"
     inkscape:window-y="0"
     inkscape:window-maximized="0" />
  <metadata
     id="metadata5">
    <rdf:RDF>
      <cc:Work
         rdf:about="">
        <dc:format>image/svg+xml</dc:format>
        <dc:type
           rdf:resource="http://purl.org/dc/dcmitype/StillImage" />
        <dc:title></dc:title>
      </cc:Work>
    </rdf:RDF>
  </metadata>
  <g
     inkscape:label="Layer 1"
     inkscape:groupmode="layer"
     id="layer1">
    <g
       id="g952"
       transform="matrix(0.20958399,0,0,0.2230579,49.259532,112.57546)">
      <path
         d="m 458.85304,294.44821 -45.25,-45.2197 c -6,-5.99598 -14.14,-9.3637 -22.63,-9.3637 h -50.75 v -79.95642 c 0,-26.49227 -21.49,-47.96787 -48,-47.96787 H 132.22305 c -26.51,0 -48.000002,21.4756 -48.000002,47.96787 v 79.94642 h -50.75 c -8.49,0 -16.62,3.36775 -22.630003,9.36373 l -45.25,45.22967 c -6,5.99601 -9.37,14.13055 -9.37,22.61485 v 82.68459 H 84.223048 v -15.98926 c 0,-8.83409 7.16,-15.98929 16.000002,-15.98929 h 32 c 8.84,0 16,7.1552 16,15.98929 v 15.98926 h 127.99999 v -15.98926 c 0,-8.83409 7.16,-15.98929 16,-15.98929 h 32 c 8.84,0 16,7.1552 16,15.98929 v 15.98926 h 128 v -82.69456 c 0,-8.47433 -3.37,-16.60887 -9.37,-22.60488 z m -182.63,-54.5934 H 148.22305 v -63.95716 h 127.99999 z m 64,207.86071 c 0,8.83409 -7.16,15.98929 -16,15.98929 h -32 c -8.84,0 -16,-7.1552 -16,-15.98929 V 431.72623 H 148.22305 v 15.98929 c 0,8.83409 -7.16,15.98929 -16,15.98929 h -32 c -8.840002,0 -16.000002,-7.1552 -16.000002,-15.98929 V 431.72623 H -43.776955 v 95.93571 c 0,17.65818 14.33,31.97858 32,31.97858 H 436.22304 c 17.67,0 32,-14.3204 32,-31.97858 v -95.93571 h -128 z"
         id="path12"
         style="fill:#ffb380;fill-opacity:1;stroke:#2499c7;stroke-width:0.865;stroke-miterlimit:4;stroke-dasharray:none;stroke-opacity:1" />
      <path
         id="path12-5"
         style="fill:#2499c7;fill-opacity:1;stroke:#ffb380;stroke-width:0.865;stroke-miterlimit:4;stroke-dasharray:none;stroke-opacity:1"
         d="m 132.22299,111.94052 c -26.50988,0 -47.99994,21.47658 -47.99994,47.96871 v 79.94517 h -50.75 c -8.490004,0 -16.62086,3.36923 -22.630859,9.36515 l -45.250005,45.22849 c -5.999998,5.99596 -9.369136,14.1309 -9.369136,22.61525 v 82.68524 h 128 v -15.99014 c 0,-8.83407 7.160001,-15.98825 16.00002,-15.98825 h 31.99992 c 8.84008,0 16.00008,7.15418 16.00008,15.98825 v 15.99014 h 127.99996 v -15.99014 c 0,-8.83407 7.16,-15.98825 16.00008,-15.98825 h 31.99992 c 8.84003,0 15.99998,7.15418 15.99998,15.98825 v 15.99014 h 128.00014 v -82.69511 c 0,-8.47427 -3.37122,-16.60942 -9.3712,-22.60538 l -45.25003,-45.21872 c -5.99997,-5.99587 -14.13883,-9.36318 -22.62886,-9.36318 h -50.75005 v -79.95691 c 0,-26.49213 -21.49002,-47.96871 -47.9999,-47.96871 z m 16.00008,63.95702 H 276.22303 V 239.8544 H 148.22307 Z M -43.77695,436.26221 v 1.44919 c 0.213628,-0.0546 0.42913,-0.10121 0.64258,-0.15634 -0.189251,-0.40112 -0.308902,-0.79013 -0.17773,-1.15819 -0.147063,-0.0386 -0.328032,-0.0938 -0.46485,-0.13466 z m 21.644529,118.97036 c -1.927931,0.0876 -3.604428,0.1795 -5.380859,0.2695 0.621921,0.35187 1.253471,0.68941 1.900391,1.00002 1.077638,0.0105 2.154683,0.0319 3.232427,0.0362 0.0482,-0.39375 0.131513,-0.82967 0.248041,-1.30484 z" />
    </g>
  </g>
</svg>
