<?xml version="1.0" encoding="UTF-8" standalone="no"?>
<svg
   xmlns:dc="http://purl.org/dc/elements/1.1/"
   xmlns:cc="http://creativecommons.org/ns#"
   xmlns:rdf="http://www.w3.org/1999/02/22-rdf-syntax-ns#"
   xmlns:svg="http://www.w3.org/2000/svg"
   xmlns="http://www.w3.org/2000/svg"
   xmlns:sodipodi="http://sodipodi.sourceforge.net/DTD/sodipodi-0.dtd"
   xmlns:inkscape="http://www.inkscape.org/namespaces/inkscape"
   width="210mm"
   height="297mm"
   viewBox="0 0 210 297"
   version="1.1"
   id="svg8"
   inkscape:version="1.0.2-2 (e86c870879, 2021-01-15)"
   sodipodi:docname="Icons-World.svg">
  <defs
     id="defs2" />
  <sodipodi:namedview
     id="base"
     pagecolor="#ffffff"
     bordercolor="#666666"
     borderopacity="1.0"
     inkscape:pageopacity="0.0"
     inkscape:pageshadow="2"
     inkscape:zoom="0.49497475"
     inkscape:cx="-505.17561"
     inkscape:cy="1168.1143"
     inkscape:document-units="mm"
     inkscape:current-layer="layer1"
     inkscape:document-rotation="0"
     showgrid="false"
     inkscape:window-width="1267"
     inkscape:window-height="728"
     inkscape:window-x="52"
     inkscape:window-y="0"
     inkscape:window-maximized="0" />
  <metadata
     id="metadata5">
    <rdf:RDF>
      <cc:Work
         rdf:about="">
        <dc:format>image/svg+xml</dc:format>
        <dc:type
           rdf:resource="http://purl.org/dc/dcmitype/StillImage" />
        <dc:title></dc:title>
      </cc:Work>
    </rdf:RDF>
  </metadata>
  <g
     inkscape:label="Layer 1"
     inkscape:groupmode="layer"
     id="layer1">
    <g
       id="g1408">
      <path
         d="M -38.559238,249.76667 C -42.395697,226.13938 -51.444447,209.55 -61.974863,209.55 c -10.530417,0 -19.579167,16.58938 -23.415625,40.21667 z m -48.815625,25.4 c 0,5.87375 0.3175,11.50937 0.873125,16.93333 h 49.027291 c 0.555625,-5.42396 0.873125,-11.05958 0.873125,-16.93333 0,-5.87375 -0.3175,-11.50938 -0.873125,-16.93334 h -49.027291 c -0.555625,5.42396 -0.873125,11.05959 -0.873125,16.93334 z m 85.9102028,-25.4 c -7.56708,-17.96521 -22.8864498,-31.85584 -41.8041618,-37.465 6.455834,8.94291 10.900834,22.41021 13.229167,37.465 z m -79.2427028,-37.465 c -18.89125,5.60916 -34.237087,19.49979 -41.777707,37.465 h 28.574998 c 2.301875,-15.05479 6.746875,-28.52209 13.202709,-37.465 z M 1.3663898,258.23333 H -28.981322 c 0.555625,5.55625 0.873125,11.2448 0.873125,16.93334 0,5.68854 -0.3175,11.37708 -0.873125,16.93333 H 1.3399298 c 1.45521,-5.42396 2.27541,-11.05958 2.27541,-16.93333 0,-5.87375 -0.8202,-11.50938 -2.24895,-16.93334 z M -95.84153,275.16667 c 0,-5.68854 0.3175,-11.37709 0.873125,-16.93334 h -30.347705 c -1.42875,5.42396 -2.27542,11.05959 -2.27542,16.93334 0,5.87375 0.84667,11.50937 2.27542,16.93333 h 30.321247 c -0.529167,-5.55625 -0.846667,-11.24479 -0.846667,-16.93333 z m 10.451042,25.4 c 3.836458,23.62728 12.885208,40.21666 23.415625,40.21666 10.530416,0 19.579166,-16.58938 23.415625,-40.21666 z m 42.148125,37.46499 C -24.35111,332.4225 -9.0052802,318.53187 -1.4382002,300.56667 H -30.013197 c -2.328333,15.05478 -6.773333,28.52208 -13.229166,37.46499 z m -79.242707,-37.46499 c 7.56708,17.9652 22.886457,31.85583 41.804165,37.46499 -6.455833,-8.94291 -10.900833,-22.41021 -13.229167,-37.46499 z"
         id="path1026"
         style="fill:#2499c7;fill-opacity:1;stroke:#ffb380;stroke-width:0.683;stroke-miterlimit:4;stroke-dasharray:none;stroke-opacity:1" />
      <path
         id="path1026-8"
         style="fill:#ffb380;fill-opacity:1;stroke:#2499c7;stroke-width:0.683001;stroke-miterlimit:4;stroke-dasharray:none;stroke-opacity:1"
         d="m -43.268708,212.30178 c 6.455807,8.94291 10.900807,22.4101 13.229166,37.46489 h 28.575 C -9.0316252,231.80146 -24.351,217.91094 -43.268708,212.30178 Z m -43.23303,45.93156 c -0.555622,5.42396 -0.872815,11.05979 -0.872815,16.93333 0,5.87375 0.317193,11.50937 0.872815,16.93333 h 49.027484 c 0.555625,-5.42396 0.873337,-11.05958 0.873337,-16.93333 0,-5.87354 -0.317712,-11.50937 -0.873337,-16.93333 z m 56.488549,42.33229 c -2.32836,15.0548 -6.773333,28.52201 -13.229167,37.4649 18.89125,-5.60914 34.2370833,-19.49969 41.8041665,-37.4649 z" />
    </g>
  </g>
</svg>
 
 