<?xml version="1.0" encoding="UTF-8" standalone="no"?>
<svg
   xmlns:dc="http://purl.org/dc/elements/1.1/"
   xmlns:cc="http://creativecommons.org/ns#"
   xmlns:rdf="http://www.w3.org/1999/02/22-rdf-syntax-ns#"
   xmlns:svg="http://www.w3.org/2000/svg"
   xmlns="http://www.w3.org/2000/svg"
   xmlns:sodipodi="http://sodipodi.sourceforge.net/DTD/sodipodi-0.dtd"
   xmlns:inkscape="http://www.inkscape.org/namespaces/inkscape"
   width="210mm"
   height="297mm"
   viewBox="0 0 210 297"
   version="1.1"
   id="svg1177"
   inkscape:version="1.0.2-2 (e86c870879, 2021-01-15)"
   sodipodi:docname="Icon-Bug.svg">
  <defs
     id="defs1171" />
  <sodipodi:namedview
     id="base"
     pagecolor="#ffffff"
     bordercolor="#666666"
     borderopacity="1.0"
     inkscape:pageopacity="0.0"
     inkscape:pageshadow="2"
     inkscape:zoom="0.49497475"
     inkscape:cx="655.70357"
     inkscape:cy="702.20965"
     inkscape:document-units="mm"
     inkscape:current-layer="layer1"
     inkscape:document-rotation="0"
     showgrid="false"
     inkscape:window-width="1267"
     inkscape:window-height="728"
     inkscape:window-x="83"
     inkscape:window-y="0"
     inkscape:window-maximized="0" />
  <metadata
     id="metadata1174">
    <rdf:RDF>
      <cc:Work
         rdf:about="">
        <dc:format>image/svg+xml</dc:format>
        <dc:type
           rdf:resource="http://purl.org/dc/dcmitype/StillImage" />
        <dc:title></dc:title>
      </cc:Work>
    </rdf:RDF>
  </metadata>
  <g
     inkscape:label="Layer 1"
     inkscape:groupmode="layer"
     id="layer1">
    <g
       id="g1811"
       transform="translate(72.697311,14.432554)">
      <path
         id="path1189"
         style="fill:#2499c7;fill-opacity:1;stroke:#ffb380;stroke-width:2.50205;stroke-miterlimit:4;stroke-dasharray:none;stroke-opacity:1"
         transform="scale(0.26458333)"
         d="m -69.142578,482.85547 c -8.1895,0 -16.379907,3.12454 -22.628906,9.37305 -12.496006,12.497 -12.496006,32.75885 0,45.25586 l 46.628906,46.62695 v 58.74609 h -56.000002 c -17.972,0 -32.48528,14.81637 -31.98828,32.90039 0.478,17.43001 15.2183,31.09961 32.6543,31.09961 h 55.333982 v 16 c 0,21.864 4.881607,42.58354 13.599609,61.14453 l -60.228515,60.22852 c -12.496006,12.49701 -12.496006,32.7569 0,45.25391 12.496999,12.49597 32.757857,12.49699 45.255859,0 L 8.2207031,834.74805 c 24.7500019,20.07299 56.2857189,32.10937 90.6367189,32.10937 v -244 c 0,-6.62698 5.372998,-12 11.999998,-12 h 24 c 6.627,0 12,5.37302 12,12 v 244 c 34.351,0 65.88477,-12.03638 90.63477,-32.10937 l 54.73633,54.73633 c 12.497,12.49597 32.75786,12.49699 45.25586,0 12.49601,-12.49701 12.49601,-32.7569 0,-45.25391 l -60.22852,-60.22852 c 8.71801,-18.56099 13.60156,-39.28053 13.60156,-61.14453 v -16 h 55.33399 c 17.43602,0 32.17434,-13.6696 32.65234,-31.09961 0.49599,-18.08402 -14.01433,-32.90039 -31.98633,-32.90039 h -56 v -58.74609 l 46.62696,-46.62695 c 12.49597,-12.49701 12.49597,-32.7569 0,-45.25391 -12.498,-12.49697 -32.75787,-12.49697 -45.25586,0 l -54.62696,54.62695 H 8.1113281 l -54.6269531,-54.6289 c -6.249001,-6.24851 -14.437453,-9.37305 -22.626953,-9.37305 z" />
      <path
         id="path1189-4"
         style="fill:#ffb380;fill-opacity:1;stroke:#2499c7;stroke-width:0.683001;stroke-miterlimit:4;stroke-dasharray:none;stroke-opacity:1"
         d="m 32.770532,106.13549 c -16.366067,0 -29.6333331,13.26727 -29.6333331,29.63333 H 62.403865 c 0,-16.36606 -13.267267,-29.63333 -29.633333,-29.63333 z m -63.968703,68.99631 c -0.05517,0.0341 -0.112589,0.065 -0.166915,0.10025 0.05034,-0.009 0.100565,-0.0199 0.150894,-0.0295 0.0054,-0.0229 0.01066,-0.0477 0.01603,-0.0708 z" />
    </g>
  </g>
</svg>
