<?xml version="1.0" encoding="UTF-8" standalone="no"?>
<svg
   xmlns:dc="http://purl.org/dc/elements/1.1/"
   xmlns:cc="http://creativecommons.org/ns#"
   xmlns:rdf="http://www.w3.org/1999/02/22-rdf-syntax-ns#"
   xmlns:svg="http://www.w3.org/2000/svg"
   xmlns="http://www.w3.org/2000/svg"
   xmlns:sodipodi="http://sodipodi.sourceforge.net/DTD/sodipodi-0.dtd"
   xmlns:inkscape="http://www.inkscape.org/namespaces/inkscape"
   width="210mm"
   height="297mm"
   viewBox="0 0 210 297"
   version="1.1"
   id="svg1827"
   inkscape:version="1.0.2-2 (e86c870879, 2021-01-15)"
   sodipodi:docname="Icon-Barcode.svg">
  <defs
     id="defs1821" />
  <sodipodi:namedview
     id="base"
     pagecolor="#ffffff"
     bordercolor="#666666"
     borderopacity="1.0"
     inkscape:pageopacity="0.0"
     inkscape:pageshadow="2"
     inkscape:zoom="0.35"
     inkscape:cx="327.25806"
     inkscape:cy="597.33182"
     inkscape:document-units="mm"
     inkscape:current-layer="layer1"
     inkscape:document-rotation="0"
     showgrid="false"
     inkscape:window-width="1267"
     inkscape:window-height="728"
     inkscape:window-x="52"
     inkscape:window-y="0"
     inkscape:window-maximized="0" />
  <metadata
     id="metadata1824">
    <rdf:RDF>
      <cc:Work
         rdf:about="">
        <dc:format>image/svg+xml</dc:format>
        <dc:type
           rdf:resource="http://purl.org/dc/dcmitype/StillImage" />
        <dc:title></dc:title>
      </cc:Work>
    </rdf:RDF>
  </metadata>
  <g
     inkscape:label="Layer 1"
     inkscape:groupmode="layer"
     id="layer1">
    <g
       id="g2755"
       transform="translate(6.8035714,-19.654762)">
      <g
         id="g2750"
         transform="translate(-1.16e-4)">
        <path
           d="M 27.516665,203.50238 V 101.90239 h 4.7625 v 101.59999 z m 7.105914,-0.0722 V 101.90239 h 2.419086 v 101.52776 z m 7.181586,0 V 101.90239 h 2.343415 v 101.52776 z m 11.868415,0 V 101.90239 h 2.343414 v 101.52776 z m 9.525,0 V 101.90239 h 4.686829 v 101.52776 z m 11.868414,0 V 101.90239 h 2.343415 v 101.52776 z m 4.7625,0 V 101.90239 h 2.343415 v 101.52776 z m 4.7625,0 V 101.90239 h 2.343415 v 101.52776 z m 9.449594,0 V 101.90239 h 4.7625 v 101.52776 z m 11.868412,0 V 101.90239 h 4.7625 v 101.52776 z m 9.52474,0 V 101.90239 h 4.76276 v 101.52776 z m 9.52526,0 V 101.90239 h 4.76277 v 101.52776 z m 7.10592,0 V 101.90239 h 4.7625 v 101.52776 z m 11.94409,0 V 101.90239 h 7.10591 v 101.52776 z m 9.44932,0 V 101.90239 h 2.41908 v 101.52776 z m 4.7625,0.0722 V 101.90239 h 4.7625 v 101.59999 z"
           id="path1829"
           style="fill:#2499c7;fill-opacity:1;stroke:#ffb380;stroke-width:0.662;stroke-miterlimit:4;stroke-dasharray:none;stroke-opacity:1" />
      </g>
      <path
         id="path1829-0"
         style="fill:#ffb380;fill-opacity:1;stroke:#2499c7;stroke-width:0.264583;stroke-opacity:1"
         d="m 41.80387,101.90239 v 101.52765 h 2.343525 V 101.90239 Z m 11.868525,0 v 101.52765 h 2.343526 V 101.90239 Z m 9.525,0 v 101.52765 h 4.687051 V 101.90239 Z m 30.843077,0 v 101.52765 h 4.7625 V 101.90239 Z m 11.868528,0 v 101.52765 h 4.7625 V 101.90239 Z m 26.15551,0 v 101.52765 h 4.7625 V 101.90239 Z m 21.39352,0 v 101.52765 h 2.41898 V 101.90239 Z" />
    </g>
  </g>
</svg>
