<?xml version="1.0" encoding="UTF-8" standalone="no"?>
<svg
   xmlns:dc="http://purl.org/dc/elements/1.1/"
   xmlns:cc="http://creativecommons.org/ns#"
   xmlns:rdf="http://www.w3.org/1999/02/22-rdf-syntax-ns#"
   xmlns:svg="http://www.w3.org/2000/svg"
   xmlns="http://www.w3.org/2000/svg"
   xmlns:sodipodi="http://sodipodi.sourceforge.net/DTD/sodipodi-0.dtd"
   xmlns:inkscape="http://www.inkscape.org/namespaces/inkscape"
   width="210mm"
   height="297mm"
   viewBox="0 0 210 297"
   version="1.1"
   id="svg8"
   inkscape:version="1.0.2-2 (e86c870879, 2021-01-15)"
   sodipodi:docname="Icons-Tools.svg">
  <defs
     id="defs2" />
  <sodipodi:namedview
     id="base"
     pagecolor="#ffffff"
     bordercolor="#666666"
     borderopacity="1.0"
     inkscape:pageopacity="0.0"
     inkscape:pageshadow="2"
     inkscape:zoom="0.35"
     inkscape:cx="26.364087"
     inkscape:cy="617.25395"
     inkscape:document-units="mm"
     inkscape:current-layer="layer1"
     inkscape:document-rotation="0"
     showgrid="false"
     inkscape:window-width="1267"
     inkscape:window-height="728"
     inkscape:window-x="52"
     inkscape:window-y="0"
     inkscape:window-maximized="0" />
  <metadata
     id="metadata5">
    <rdf:RDF>
      <cc:Work
         rdf:about="">
        <dc:format>image/svg+xml</dc:format>
        <dc:type
           rdf:resource="http://purl.org/dc/dcmitype/StillImage" />
        <dc:title></dc:title>
      </cc:Work>
    </rdf:RDF>
  </metadata>
  <g
     inkscape:label="Layer 1"
     inkscape:groupmode="layer"
     id="layer1">
    <g
       id="g1022">
      <path
         d="M 117.7755,210.06877 86.792792,179.08606 c -6.111875,-6.11187 -15.24,-7.3025 -22.595417,-3.6777 L 35.992792,147.20377 v -16.43062 l -33.8666674,-25.4 -16.9333326,16.93333 25.4,33.86667 H 27.023417 L 55.228,184.37773 c -3.598333,7.35542 -2.434166,16.48354 3.677709,22.59542 l 30.982703,30.98271 c 3.86292,3.86291 10.10709,3.86291 13.943548,0 l 13.94354,-13.94354 c 3.83646,-3.86292 3.83646,-10.10709 0,-13.94355 z M 72.955084,164.9044 c 7.487708,0 14.525628,2.91041 19.817288,8.20208 l 5.13292,5.13292 c 4.180418,-1.82563 8.149168,-4.36563 11.588748,-7.80521 9.81604,-9.81604 13.14979,-23.62729 10.02771,-36.16854 -0.58209,-2.38125 -3.57188,-3.20146 -5.31813,-1.45521 l -19.684998,19.685 -17.965205,-2.98979 -2.989792,-17.96521 19.684997,-19.685 c 1.74625,-1.74625 0.89959,-4.73604 -1.50812,-5.34458 -12.541252,-3.09563 -26.352502,0.23812 -36.142085,10.0277 -7.540625,7.54063 -11.086042,17.48896 -10.900833,27.41084 l 21.722291,21.72229 C 68.563,165.16898 70.7855,164.9044 72.955084,164.9044 Z M 45.464875,186.60023 30.463,171.59836 -9.8595001,211.94732 c -6.6145829,6.61458 -6.6145829,17.3302 0,23.94479 6.6145837,6.61458 17.3302087,6.61458 23.9447921,0 l 32.7025,-32.7025 C 44.776959,197.9244 44.168417,192.18294 45.464875,186.60023 Z M 2.1261246,230.25648 c -3.4925,0 -6.35,-2.8575 -6.35,-6.35 0,-3.51896 2.831042,-6.35 6.35,-6.35 3.518959,0 6.35,2.83104 6.35,6.35 0,3.4925 -2.831041,6.35 -6.35,6.35 z"
         id="path10"
         style="stroke-width:0.683;fill:#ffb380;fill-opacity:1;stroke:#2499c7;stroke-opacity:1;stroke-miterlimit:4;stroke-dasharray:none" />
      <path
         id="path10-6"
         style="fill:#2499c7;fill-opacity:1;stroke:#ffb380;stroke-width:0.683001;stroke-miterlimit:4;stroke-dasharray:none;stroke-opacity:1"
         d="m 2.1261254,105.37315 -16.9333334,16.93333 25.4,33.86667 h 16.430545 l 28.204478,28.20448 c -3.598334,7.35541 -2.434088,16.48364 3.677814,22.59552 l 30.982602,30.9826 c 3.862916,3.86292 10.107374,3.86292 13.943829,0 l 13.94336,-13.94386 c 3.83646,-3.86291 3.83646,-10.10687 0,-13.94333 l -30.982629,-30.9826 c -6.111848,-6.11187 -15.240106,-7.30262 -22.595496,-3.67781 L 35.992792,147.20367 v -16.43052 z" />
    </g>
  </g>
</svg>
