<?xml version="1.0" encoding="UTF-8" standalone="no"?>
<svg
   xmlns:dc="http://purl.org/dc/elements/1.1/"
   xmlns:cc="http://creativecommons.org/ns#"
   xmlns:rdf="http://www.w3.org/1999/02/22-rdf-syntax-ns#"
   xmlns:svg="http://www.w3.org/2000/svg"
   xmlns="http://www.w3.org/2000/svg"
   xmlns:sodipodi="http://sodipodi.sourceforge.net/DTD/sodipodi-0.dtd"
   xmlns:inkscape="http://www.inkscape.org/namespaces/inkscape"
   width="210mm"
   height="297mm"
   viewBox="0 0 210 297"
   version="1.1"
   id="svg850"
   inkscape:version="1.0.2-2 (e86c870879, 2021-01-15)"
   sodipodi:docname="Icon-Crop.svg">
  <defs
     id="defs844" />
  <sodipodi:namedview
     id="base"
     pagecolor="#ffffff"
     bordercolor="#666666"
     borderopacity="1.0"
     inkscape:pageopacity="0.0"
     inkscape:pageshadow="2"
     inkscape:zoom="0.7"
     inkscape:cx="672.79519"
     inkscape:cy="637.40713"
     inkscape:document-units="mm"
     inkscape:current-layer="layer1"
     inkscape:document-rotation="0"
     showgrid="false"
     inkscape:window-width="1267"
     inkscape:window-height="728"
     inkscape:window-x="52"
     inkscape:window-y="0"
     inkscape:window-maximized="0" />
  <metadata
     id="metadata847">
    <rdf:RDF>
      <cc:Work
         rdf:about="">
        <dc:format>image/svg+xml</dc:format>
        <dc:type
           rdf:resource="http://purl.org/dc/dcmitype/StillImage" />
        <dc:title></dc:title>
      </cc:Work>
    </rdf:RDF>
  </metadata>
  <g
     inkscape:label="Layer 1"
     inkscape:groupmode="layer"
     id="layer1">
    <path
       d="m 199.72262,204.93869 h -10.58334 v -64.22761 l 15.69244,-15.69243 c 1.65365,-1.65365 1.65365,-4.33388 0,-5.98752 l -5.98487,-5.98488 c -1.65365,-1.65364 -4.33388,-1.65364 -5.98753,0 l -15.69243,15.69244 h -55.76094 v 25.4 h 30.36094 l -38.82761,38.8276 v -74.81093 c 0,-3.50838 -2.84427,-6.35 -6.35,-6.35 H 93.889284 c -3.505729,0 -6.35,2.84162 -6.35,6.35 v 10.58333 H 76.955951 c -3.505729,0 -6.35,2.84162 -6.35,6.35 v 12.7 c 0,3.50573 2.844271,6.35 6.35,6.35 h 10.583333 v 69.85 c 0,3.50573 2.844271,6.35 6.35,6.35 h 61.383336 v -25.4 h -30.36094 l 38.8276,-38.82761 v 74.81095 c 0,3.50573 2.84427,6.35 6.35,6.35 h 12.7 c 3.50573,0 6.35,-2.84427 6.35,-6.35 v -10.58334 h 10.58334 c 3.50573,0 6.35,-2.84427 6.35,-6.35 v -12.7 c 0,-3.50838 -2.84427,-6.35 -6.35,-6.35 z"
       id="path1624"
       style="stroke-width:0.683;stroke:#ffb380;stroke-opacity:1;fill:#2499c7;fill-opacity:1;stroke-miterlimit:4;stroke-dasharray:none" />
  </g>
</svg>
