<?xml version="1.0" encoding="UTF-8" standalone="no"?>
<svg
   xmlns:dc="http://purl.org/dc/elements/1.1/"
   xmlns:cc="http://creativecommons.org/ns#"
   xmlns:rdf="http://www.w3.org/1999/02/22-rdf-syntax-ns#"
   xmlns:svg="http://www.w3.org/2000/svg"
   xmlns="http://www.w3.org/2000/svg"
   xmlns:sodipodi="http://sodipodi.sourceforge.net/DTD/sodipodi-0.dtd"
   xmlns:inkscape="http://www.inkscape.org/namespaces/inkscape"
   width="210mm"
   height="297mm"
   viewBox="0 0 210 297"
   version="1.1"
   id="svg8"
   inkscape:version="1.0.2-2 (e86c870879, 2021-01-15)"
   sodipodi:docname="Icon-Responsive.svg">
  <defs
     id="defs2" />
  <sodipodi:namedview
     id="base"
     pagecolor="#ffffff"
     bordercolor="#666666"
     borderopacity="1.0"
     inkscape:pageopacity="0.0"
     inkscape:pageshadow="2"
     inkscape:zoom="0.35"
     inkscape:cx="400"
     inkscape:cy="636.336"
     inkscape:document-units="mm"
     inkscape:current-layer="layer1"
     inkscape:document-rotation="0"
     showgrid="false"
     inkscape:window-width="1267"
     inkscape:window-height="728"
     inkscape:window-x="83"
     inkscape:window-y="0"
     inkscape:window-maximized="0" />
  <metadata
     id="metadata5">
    <rdf:RDF>
      <cc:Work
         rdf:about="">
        <dc:format>image/svg+xml</dc:format>
        <dc:type
           rdf:resource="http://purl.org/dc/dcmitype/StillImage" />
        <dc:title></dc:title>
      </cc:Work>
    </rdf:RDF>
  </metadata>
  <g
     inkscape:label="Layer 1"
     inkscape:groupmode="layer"
     id="layer1">
    <g
       id="g953">
      <path
         d="M 149.07381,152.39999 H 138.49047 V 84.666664 c 0,-4.67519 -3.79148,-8.46667 -8.46666,-8.46667 H 70.757141 v 25.399996 h 42.333329 v 86.78334 c 0,3.50573 2.84428,6.35 6.35,6.35 h 12.7 c 3.50573,0 6.35,-2.84427 6.35,-6.35 v -10.58334 h 10.58334 c 3.50573,0 6.35,-2.84427 6.35,-6.35 v -12.7 c 0,-3.50837 -2.84427,-6.35 -6.35,-6.35 z M 62.290474,65.616664 c 0,-3.50837 -2.844271,-6.35 -6.35,-6.35 h -12.7 c -3.505729,0 -6.35,2.84163 -6.35,6.35 v 10.58333 H 26.307141 c -3.505729,0 -6.35,2.84163 -6.35,6.35 v 12.7 c 0,3.50573 2.844271,6.349996 6.35,6.349996 h 10.583333 v 67.73334 c 0,4.67518 3.791479,8.46666 8.466667,8.46666 h 59.266669 v -25.4 H 62.290474 Z"
         id="path864"
         style="stroke-width:0.865;fill:#ffb380;fill-opacity:1;stroke:#2499c7;stroke-opacity:1;stroke-miterlimit:4;stroke-dasharray:none" />
      <path
         id="path864-9"
         style="fill:#2499c7;fill-opacity:1;stroke:#ffb380;stroke-width:0.865;stroke-miterlimit:4;stroke-dasharray:none;stroke-opacity:1"
         d="m 70.757137,76.19999 v 25.4 h 42.333333 v 86.78333 c 0,3.50573 2.8443,6.35 6.35,6.35 h 12.7 c 3.50573,0 6.35,-2.84427 6.35,-6.35 v -10.58333 h 10.58333 c 3.50573,0 6.35,-2.84427 6.35,-6.35 v -12.7 c 0,-3.50837 -2.84427,-6.35 -6.35,-6.35 H 138.49047 V 84.666657 c 0,-4.675193 -3.79148,-8.466667 -8.46667,-8.466667 z M 54.59017,161.16948 c -0.05882,0.0566 -0.11557,0.1127 -0.163301,0.16743 0.03913,-0.0224 0.07559,-0.0465 0.113189,-0.0698 0.01667,-0.0324 0.03363,-0.0674 0.05011,-0.0977 z" />
    </g>
  </g>
</svg>



