<?xml version="1.0" encoding="UTF-8" standalone="no"?>
<svg
   xmlns:dc="http://purl.org/dc/elements/1.1/"
   xmlns:cc="http://creativecommons.org/ns#"
   xmlns:rdf="http://www.w3.org/1999/02/22-rdf-syntax-ns#"
   xmlns:svg="http://www.w3.org/2000/svg"
   xmlns="http://www.w3.org/2000/svg"
   xmlns:sodipodi="http://sodipodi.sourceforge.net/DTD/sodipodi-0.dtd"
   xmlns:inkscape="http://www.inkscape.org/namespaces/inkscape"
   width="210mm"
   height="297mm"
   viewBox="0 0 210 297"
   version="1.1"
   id="svg8"
   inkscape:version="1.0.2-2 (e86c870879, 2021-01-15)"
   sodipodi:docname="Icon-Laptop-code.svg">
  <defs
     id="defs2">
    <rect
       x="-86.178571"
       y="60.47619"
       width="222.25"
       height="167.06547"
       id="rect926" />
  </defs>
  <sodipodi:namedview
     id="base"
     pagecolor="#ffffff"
     bordercolor="#666666"
     borderopacity="1.0"
     inkscape:pageopacity="0.0"
     inkscape:pageshadow="2"
     inkscape:zoom="0.49497475"
     inkscape:cx="579.48507"
     inkscape:cy="609.80501"
     inkscape:document-units="mm"
     inkscape:current-layer="layer1"
     inkscape:document-rotation="0"
     showgrid="false"
     inkscape:window-width="1267"
     inkscape:window-height="728"
     inkscape:window-x="83"
     inkscape:window-y="0"
     inkscape:window-maximized="0" />
  <metadata
     id="metadata5">
    <rdf:RDF>
      <cc:Work
         rdf:about="">
        <dc:format>image/svg+xml</dc:format>
        <dc:type
           rdf:resource="http://purl.org/dc/dcmitype/StillImage" />
        <dc:title></dc:title>
      </cc:Work>
    </rdf:RDF>
  </metadata>
  <g
     inkscape:label="Layer 1"
     inkscape:groupmode="layer"
     id="layer1">
    <g
       id="g1156"
       transform="translate(16.570711,-2.1381562)">
      <path
         id="path20"
         style="fill:#2499c7;fill-opacity:1;stroke:#ffb380;stroke-width:0.661988;stroke-miterlimit:4;stroke-dasharray:none;stroke-opacity:1"
         d="m 44.824614,73.522167 c -6.985,0 -12.7,5.714999 -12.7,12.699999 V 175.12217 H 167.59128 V 86.222166 c 0,-6.985 -5.715,-12.699999 -12.7,-12.699999 z m 4.233333,16.933332 H 150.65795 V 158.18883 H 49.057947 Z M 19.424614,183.58883 c -2.328333,0 -4.233333,1.90501 -4.233333,4.23334 v 4.23333 c 0,9.31334 7.62,16.93333 16.933333,16.93333 H 167.59128 c 9.31333,0 16.93333,-7.61999 16.93333,-16.93333 v -4.23333 c 0,-2.32833 -1.905,-4.23334 -4.23333,-4.23334 h -64.15112 c -0.19579,5.24139 -3.89209,8.46667 -8.66252,8.46667 H 91.39128 c -4.945063,0 -8.736417,-4.62228 -8.670271,-8.46667 z" />
      <path
         id="path31"
         style="opacity:1;fill:#ffb380;fill-opacity:1;stroke:#2499c7;stroke-width:0.682625;stroke-miterlimit:4;stroke-dasharray:none;stroke-opacity:1"
         d="m 86.533411,106.0715 c -1.083469,0 -2.166813,0.41341 -2.993615,1.24024 l -15.435751,15.43574 c -1.653649,1.65366 -1.653649,4.3336 0,5.98724 l 15.438334,15.43626 c 1.653651,1.65365 4.334097,1.65365 5.987748,0 l 2.992064,-2.99258 c 1.653649,-1.65365 1.653649,-4.3341 0,-5.98775 l -9.450586,-9.448 9.448004,-9.4511 c 1.653638,-1.65365 1.653638,-4.33359 0,-5.98723 l -2.992067,-2.99258 c -0.826823,-0.82683 -1.910662,-1.24024 -2.994131,-1.24024 z m 28.397749,0.003 c -1.08347,0 -2.16681,0.41341 -2.9936,1.24023 l -2.9926,2.99258 c -1.65364,1.65366 -1.65364,4.3336 0,5.98724 l 9.44851,9.44851 -9.44851,9.45059 c -1.65364,1.65365 -1.65364,4.33411 0,5.98775 l 2.9926,2.99258 c 1.65362,1.65364 4.33358,1.65364 5.98723,0 l 15.43626,-15.43575 c 1.65365,-1.65365 1.65365,-4.33411 0,-5.98775 l -15.43626,-15.4361 c -0.82683,-0.82682 -1.91016,-1.24023 -2.99363,-1.24023 z m -82.536046,79.87109 c -0.0026,2.6e-4 -0.0052,7.9e-4 -0.0078,10e-4 0.0011,0.007 0.0016,0.0132 0.0026,0.0202 0.0016,-0.007 0.0035,-0.0141 0.0052,-0.0212 z" />
    </g>
    <text
       xml:space="preserve"
       id="text924"
       style="font-style:normal;font-weight:normal;font-size:10.5833px;line-height:1.25;font-family:sans-serif;white-space:pre;shape-inside:url(#rect926);fill:#000000;fill-opacity:1;stroke:none;" />
  </g>
</svg>
