<?xml version="1.0" encoding="UTF-8" standalone="no"?>
<svg
   xmlns:dc="http://purl.org/dc/elements/1.1/"
   xmlns:cc="http://creativecommons.org/ns#"
   xmlns:rdf="http://www.w3.org/1999/02/22-rdf-syntax-ns#"
   xmlns:svg="http://www.w3.org/2000/svg"
   xmlns="http://www.w3.org/2000/svg"
   xmlns:sodipodi="http://sodipodi.sourceforge.net/DTD/sodipodi-0.dtd"
   xmlns:inkscape="http://www.inkscape.org/namespaces/inkscape"
   width="210mm"
   height="297mm"
   viewBox="0 0 210 297"
   version="1.1"
   id="svg8"
   inkscape:version="1.0.2-2 (e86c870879, 2021-01-15)"
   sodipodi:docname="Icon-CloudTwo.svg">
  <defs
     id="defs2" />
  <sodipodi:namedview
     id="base"
     pagecolor="#ffffff"
     bordercolor="#666666"
     borderopacity="1.0"
     inkscape:pageopacity="0.0"
     inkscape:pageshadow="2"
     inkscape:zoom="0.35"
     inkscape:cx="400"
     inkscape:cy="560"
     inkscape:document-units="mm"
     inkscape:current-layer="layer1"
     inkscape:document-rotation="0"
     showgrid="false"
     inkscape:window-width="1267"
     inkscape:window-height="728"
     inkscape:window-x="83"
     inkscape:window-y="0"
     inkscape:window-maximized="0" />
  <metadata
     id="metadata5">
    <rdf:RDF>
      <cc:Work
         rdf:about="">
        <dc:format>image/svg+xml</dc:format>
        <dc:type
           rdf:resource="http://purl.org/dc/dcmitype/StillImage" />
        <dc:title></dc:title>
      </cc:Work>
    </rdf:RDF>
  </metadata>
  <g
     inkscape:label="Layer 1"
     inkscape:groupmode="layer"
     id="layer1">
    <path
       d="m 149.04357,150.97125 c 1.08479,-2.83104 1.69333,-5.92667 1.69333,-9.15459 0,-14.02291 -11.37708,-25.4 -25.4,-25.4 -5.21229,0 -10.08062,1.5875 -14.10229,4.28625 -7.32895,-12.7 -21.007912,-21.219578 -36.697704,-21.219578 -23.389166,0 -42.333333,18.944168 -42.333333,42.333328 0,0.71438 0.02646,1.42875 0.05292,2.14313 -14.81667,5.21229 -25.4529196,19.34104 -25.4529196,35.95687 0,21.03437 17.0656246,38.1 38.0999996,38.1 h 97.366667 c 18.70604,0 33.86666,-15.16063 33.86666,-33.86666 0,-16.37771 -11.64166,-30.05667 -27.09333,-33.17875 z"
       id="path30"
       style="stroke-width:2.665;stroke:#ffb380;stroke-opacity:1;fill:#2499c7;fill-opacity:1;stroke-miterlimit:4;stroke-dasharray:none" />
  </g>
</svg>
